<?xml version="1.0" encoding="UTF-8"?> <svg xmlns="http://www.w3.org/2000/svg" id="Layer_1" data-name="Layer 1" viewBox="0 0 78.42 105"><defs><style>.cls-1{fill:#a7c6bd;}.cls-2{fill:#0078be;}</style></defs><title>Kuryer</title><path class="cls-1" d="M49.29,50.09V44.36A16.46,16.46,0,0,0,55.4,32.61a5.19,5.19,0,0,0,3-5.93,4,4,0,0,0-2.49-2.87V18.62l.14-.32a3.46,3.46,0,0,0,.75-2.68,19.29,19.29,0,0,0-1.29-4.79,17.72,17.72,0,0,0-32.65,0,19.57,19.57,0,0,0-1.3,4.81,3.47,3.47,0,0,0,.78,2.73l.11.26V23.8A4,4,0,0,0,20,26.68a5.15,5.15,0,0,0,3,5.93,16.42,16.42,0,0,0,6.11,11.75v5.73H31.7V46a16.38,16.38,0,0,0,7.51,1.85A16,16,0,0,0,46.72,46v4.05ZM24.14,16a17.32,17.32,0,0,1,1.13-4.19,15.15,15.15,0,0,1,27.89,0A17.24,17.24,0,0,1,54.27,16a.9.9,0,0,1-.22.74,1,1,0,0,1-.73.33l-28.22,0a1,1,0,0,1-.73-.33.94.94,0,0,1-.23-.73Zm28.32,3.57-1.52,2.85H27.48L26,19.56Zm-27,12.09v0a1.25,1.25,0,0,0-1-1.27,2.47,2.47,0,0,1-2.05-2.47,2.35,2.35,0,0,1,.08-.6,1.56,1.56,0,0,1,1.41-1.21,1.27,1.27,0,0,0,1.15-1.28V23.53l.49.83A1.28,1.28,0,0,0,26.7,25h25a1.27,1.27,0,0,0,1.16-.63l.5-.85v1.3a1.26,1.26,0,0,0,1.14,1.28,1.56,1.56,0,0,1,1.41,1.21,2.35,2.35,0,0,1,.07.6,2.47,2.47,0,0,1-2,2.47,1.24,1.24,0,0,0-1,1.27v0a13.73,13.73,0,0,1-27.46,0Z"></path><path class="cls-1" d="M78.4,97.39l-.18-25.32v0A19.87,19.87,0,0,0,63.84,53.46L62.15,53l-.71,2.47,1.69.49A17.29,17.29,0,0,1,75.64,72.07l.08,11.48H65.16v2.57H75.74l.05,6.75a6.59,6.59,0,0,0-3.31-1.18l-7.17-.52-.18,2.57,7.16.52a3.81,3.81,0,0,1,3.53,3.21l0,2.91a2,2,0,0,1-1.93,2.05H64.3V97.92H61.73v4.51h-45V97.92H14.11v4.51H4.5a2,2,0,0,1-1.37-.63,1.88,1.88,0,0,1-.56-1.35V99h.06a4.67,4.67,0,0,1,4.54-4.65l6.13-.58-.23-2.58L7,91.74a7.78,7.78,0,0,0-4.33,1.77l0-7.39H13.25V83.55H2.69l.08-11.48A17.27,17.27,0,0,1,15.29,55.93l1.78-.51-.71-2.48-1.78.52A19.86,19.86,0,0,0,.2,72v0L0,100.36a4.62,4.62,0,0,0,1.31,3.26A4.54,4.54,0,0,0,4.5,105H73.91a4.54,4.54,0,0,0,3.2-1.38,4.42,4.42,0,0,0,1.31-3.18l0-2.52h0c0-.21,0-.37,0-.53Z"></path><path class="cls-2" d="M66.37,60.56l-5.46-11a1.29,1.29,0,0,0-1.15-.72H18.66a1.27,1.27,0,0,0-1.15.72L12,60.56a1.3,1.3,0,0,0-.07.95V98a1.23,1.23,0,0,0,1.23,1.23h52A1.23,1.23,0,0,0,66.45,98h0V61.51a1.25,1.25,0,0,0-.08-.95Zm-3.27-.82H40.5V51.38H59ZM33.63,62.32h11.8v5.79H33.63ZM44.79,96.63H34.06V89.26a1.39,1.39,0,0,0,1,.3h0A1.24,1.24,0,0,0,36,89.2l1.33-1.34,1.31,1.36a1.29,1.29,0,0,0,1.82,0l0,0,1.31-1.35,1.33,1.32a1.24,1.24,0,0,0,.92.36h0a1,1,0,0,0,.78-.3Zm19.09,0H47.36V86a1.23,1.23,0,0,0-1.17-1.29,1.21,1.21,0,0,0-1,.4L44,86.48l-1.31-1.3a1.21,1.21,0,0,0-.91-.34h0a1.26,1.26,0,0,0-.92.34l-1.3,1.33-1.31-1.32a1.24,1.24,0,0,0-.92-.35h0a1.22,1.22,0,0,0-.92.34L35.05,86.5l-1.26-1.34a1.35,1.35,0,0,0-1.45-.31A1.29,1.29,0,0,0,31.49,86V96.63H14.54V62.32H19.9a1.29,1.29,0,1,0,0-2.58H15.32l4.14-8.36H37.92v8.36H28.48a1.29,1.29,0,0,0,0,2.58h2.58v7.11a1.29,1.29,0,0,0,1.33,1.25H46.65A1.31,1.31,0,0,0,48,69.43V62.32H63.88Z"></path><path class="cls-2" d="M20.55,65.05a1.29,1.29,0,0,0-1.29,1.29v1.35a1.29,1.29,0,1,0,2.57,0V66.34A1.28,1.28,0,0,0,20.55,65.05Z"></path><path class="cls-2" d="M20.55,70.48a1.29,1.29,0,0,0-1.29,1.29V85.92a1.29,1.29,0,1,0,2.57,0V71.77A1.28,1.28,0,0,0,20.55,70.48Z"></path></svg> 