<?xml version="1.0" encoding="UTF-8"?> <svg xmlns="http://www.w3.org/2000/svg" id="Layer_1" data-name="Layer 1" viewBox="0 0 115.66 105"><defs><style>.cls-1{fill:#a7c6bd;}.cls-2{fill:#0078be;}.cls-3{fill:#bab9b7;}</style></defs><title>Dostavkamainpage</title><path class="cls-1" d="M105.45,24h-65A1.47,1.47,0,0,0,39,25.45v15.3a1.47,1.47,0,0,0,1.47,1.47h2.64V86.3a1.47,1.47,0,0,0,1.47,1.47h56.74a1.47,1.47,0,0,0,1.47-1.47V42.22h2.64a1.47,1.47,0,0,0,1.47-1.47V25.45A1.47,1.47,0,0,0,105.45,24ZM81.37,26.92V39.28H64.57V26.92ZM64.58,42.22H81.37V53.71H64.58ZM42,26.92H61.63V39.28H42ZM99.87,84.83H46.07V42.22H61.64v13a1.47,1.47,0,0,0,1.47,1.47H82.84a1.47,1.47,0,0,0,1.47-1.47v-13H99.87V84.83ZM104,39.28H84.31V26.92H104Z"></path><path class="cls-2" d="M114.19,84.85H33.89V7.72A7.73,7.73,0,0,0,26.17,0H18A6.5,6.5,0,1,0,23.4,2.94h2.77A4.79,4.79,0,0,1,31,7.72v78.6a1.47,1.47,0,0,0,1.47,1.47h5.07a10.08,10.08,0,1,0,14.22,0H94.24a10.08,10.08,0,1,0,14.21,0h5.74a1.47,1.47,0,1,0,0-2.94ZM21.52,6.49A3.55,3.55,0,1,1,18,2.94,3.55,3.55,0,0,1,21.52,6.49ZM51.74,94.92a7.14,7.14,0,1,1-7.14-7.13A7.14,7.14,0,0,1,51.74,94.92Zm56.74,0a7.14,7.14,0,1,1-7.14-7.13A7.14,7.14,0,0,1,108.48,94.92Z"></path><path class="cls-2" d="M18.58,33.13H1.47a1.47,1.47,0,0,1,0-2.94H18.58a1.47,1.47,0,1,1,0,2.94Z"></path><path class="cls-2" d="M25.45,33.13H23a1.47,1.47,0,1,1,0-2.94h2.46a1.47,1.47,0,1,1,0,2.94Z"></path><path class="cls-2" d="M12.23,48.82H9.46a1.47,1.47,0,0,1,0-2.94h2.77a1.47,1.47,0,0,1,0,2.94Z"></path><path class="cls-2" d="M25.45,48.82H18.58a1.47,1.47,0,0,1,0-2.94h6.87a1.47,1.47,0,1,1,0,2.94Z"></path><path class="cls-2" d="M5.88,64.51h-3a1.47,1.47,0,1,1,0-2.94h3a1.47,1.47,0,1,1,0,2.94Z"></path><path class="cls-2" d="M25.45,64.51H11.51a1.47,1.47,0,1,1,0-2.94H25.45a1.47,1.47,0,0,1,0,2.94Z"></path><path class="cls-2" d="M25.45,80.2H10.18a1.47,1.47,0,1,1,0-2.94H25.45a1.47,1.47,0,1,1,0,2.94Z"></path><path class="cls-3" d="M94.57,81.94H51.38a1.47,1.47,0,0,1,0-2.94H94.57a1.47,1.47,0,1,1,0,2.94Z"></path></svg> 