<?xml version="1.0" encoding="UTF-8"?> <svg xmlns="http://www.w3.org/2000/svg" id="Layer_1" data-name="Layer 1" viewBox="0 0 106.5 105"><defs><style>.cls-1{fill:#0078be;}.cls-2{fill:#a7c6bd;}</style></defs><title>Samovyvoz</title><path class="cls-1" d="M15.16,94.15a3.77,3.77,0,1,0,3.76,3.77A3.76,3.76,0,0,0,15.16,94.15Zm0,4.78a1,1,0,1,1,1-1A1,1,0,0,1,15.16,98.93Z"></path><path class="cls-2" d="M106.36,17.35,98.14.76A1.37,1.37,0,0,0,96.91,0H35.13A1.37,1.37,0,0,0,33.9.76L25.86,17a1.37,1.37,0,0,0-.35.92V67.17h2.75V19.26h8.48a1.38,1.38,0,1,0,0-2.75H29.17L36,2.75H64.71V16.51H45.91a1.38,1.38,0,0,0,0,2.75H54.4V30.44a1.42,1.42,0,0,0,1.37,1.43H77.2a1.34,1.34,0,0,0,1.27-1.43V19.26h25.22V72H77.78V55.4A1.31,1.31,0,0,0,76.51,54a1.3,1.3,0,0,0-1,.43l-2.29,2.41-2.38-2.39a1.35,1.35,0,0,0-1-.38h0a1.37,1.37,0,0,0-1,.38L66.49,56.9l-2.36-2.41a1.36,1.36,0,0,0-1-.39h0a1.36,1.36,0,0,0-1,.38l-2.39,2.41-2.3-2.42a1.38,1.38,0,0,0-1.95-.07,1.4,1.4,0,0,0-.44,1V72H45.69v2.75h59.44a1.31,1.31,0,0,0,1.31-1.31h0V18.36a1.36,1.36,0,0,0-.08-1ZM75.72,29.12H57.15V19.26h8.43a1.33,1.33,0,0,0,.88,0h9.26ZM67.46,16.51V2.75h28.6l6.81,13.76ZM75,72H57.84V58.85l.91.95a1.35,1.35,0,0,0,1,.43,1.41,1.41,0,0,0,1-.41l2.4-2.45,2.37,2.44a1.36,1.36,0,0,0,1.94,0l0,0,2.37-2.44,2.4,2.45a1.41,1.41,0,0,0,1,.41,1.26,1.26,0,0,0,.94-.43l.86-.95Z"></path><path class="cls-2" d="M34.91,24.48a1.37,1.37,0,0,0-1.38,1.37V27.3a1.38,1.38,0,0,0,2.76,0V25.85A1.37,1.37,0,0,0,34.91,24.48Z"></path><path class="cls-2" d="M34.91,30.28a1.37,1.37,0,0,0-1.38,1.37V46.78a1.38,1.38,0,0,0,2.76,0V31.65A1.37,1.37,0,0,0,34.91,30.28Z"></path><path class="cls-1" d="M84.38,72.93A1.33,1.33,0,0,0,83.06,72H46.87c1.13-2.3,3-6,4.42-8.83a6.31,6.31,0,0,0-2.12-8l-.09-.08a6.08,6.08,0,0,0-8.14,1.21L35.49,63a6.31,6.31,0,0,1-4.85,2.35h-.43a9,9,0,0,0-9,8.3A8.53,8.53,0,0,1,18.66,75v0a2.21,2.21,0,0,0-2.09-1.56H2.19A2.21,2.21,0,0,0,0,75.57a2.25,2.25,0,0,0,.08.58L7.67,103.4A2.19,2.19,0,0,0,9.78,105H25a2.19,2.19,0,0,0,2.19-2.17,2.05,2.05,0,0,0-.1-.65l-2-6.49,7.17-4.53a4.15,4.15,0,0,1,3-.39l.12,0,12.65,2a15.09,15.09,0,0,0,10.46-2.19L83.8,74.43a1.32,1.32,0,0,0,.58-1.5ZM10.21,102.25,2.93,76.11H16.11l8,26.14Zm46.84-14a12.31,12.31,0,0,1-8.55,1.78l-12.6-2a6.91,6.91,0,0,0-5,.68l-.07,0L24.26,93,19.47,77.56a11.12,11.12,0,0,0,4-2.28,1.27,1.27,0,0,0,.46-1,6.23,6.23,0,0,1,6.25-6.21h.45a9,9,0,0,0,7-3.37L43.07,58a3.35,3.35,0,0,1,4.48-.68l.09,0a3.51,3.51,0,0,1,1.19,4.49L43.41,72.65A1.49,1.49,0,0,0,43.47,74a1.43,1.43,0,0,0,1.17.7h33.7Z"></path></svg> 