<?xml version="1.0" encoding="UTF-8"?> <svg xmlns="http://www.w3.org/2000/svg" viewBox="0 0 100 100" fill-rule="evenodd"><path d="m57.373 77.658 2.769 9.423c-.744.876-1.211 1.994-1.211 3.23a5.03 5.03 0 0 0 5.029 5.021c2.459 0 4.499-1.789 4.919-4.135h9.711c.286 2.498 2.389 4.452 4.963 4.452a5.028 5.028 0 0 0 5.025-5.02 5.032 5.032 0 0 0-5.025-5.028c-1.883 0-3.507 1.056-4.366 2.596h-10.7c-.799-1.712-2.521-2.908-4.527-2.908-.406 0-.795.061-1.173.152l-1.614-5.492h25.072v.001a1.5 1.5 0 0 0 1.475-1.225l4.538-24.301a1.5 1.5 0 0 0-1.474-1.775H52.168l-1.65-4.934a1.5 1.5 0 0 0-1.422-1.024h-6.143a1.5 1.5 0 1 0 0 3h5.063l9.357 27.967zm31.605-22.009L84.999 76.95h-24.7l-.063-.188-.128-.434a1.406 1.406 0 0 0-.099-.243l-6.838-20.436h35.807zm-5.425 32.954c1.117 0 2.025.91 2.025 2.028a2.023 2.023 0 1 1-2.025-2.028zm-17.585 1.709a2.017 2.017 0 0 1-2.009 2.021c-1.119 0-2.029-.907-2.029-2.021s.91-2.021 2.029-2.021a2.017 2.017 0 0 1 2.009 2.021z" fill="#a7c6bd"></path><path d="M42.618 69.669H10.717V23.684h70.481v21.512a1.5 1.5 0 1 0 3 0V5.849a1.5 1.5 0 0 0-1.5-1.5H9.217a1.5 1.5 0 0 0-1.5 1.5v65.32a1.5 1.5 0 0 0 1.5 1.5h33.401a1.5 1.5 0 1 0 0-3zm38.58-62.32v13.335H10.717V7.349h70.481z" fill="#a7c6bd"></path><path d="M29.318 15.197h5.986a1.5 1.5 0 1 0 0-3h-5.986a1.5 1.5 0 1 0 0 3zm-12.31 0h5.986a1.5 1.5 0 1 0 0-3h-5.986a1.5 1.5 0 1 0 0 3z" fill="#a7c6bd"></path></svg> 