<?xml version="1.0" encoding="UTF-8"?> <svg xmlns="http://www.w3.org/2000/svg" id="Layer_1" data-name="Layer 1" viewBox="0 0 111.63 105"><defs><style>.cls-1{fill:#bab9b7;}.cls-2{fill:#a7c6bd;}.cls-3{fill:#0078be;}</style></defs><title>Oplatamainpage</title><path class="cls-1" d="M19.56,31.75A13.69,13.69,0,1,1,33.25,18.06,13.7,13.7,0,0,1,19.56,31.75Zm0-24.49a10.8,10.8,0,1,0,10.79,10.8A10.81,10.81,0,0,0,19.56,7.26Z" transform="translate(-0.13)"></path><path class="cls-2" d="M23.9,19.86a4,4,0,0,0-1.27-1.39A11.67,11.67,0,0,0,20,17.31a6.82,6.82,0,0,1-2.32-1.17,2.05,2.05,0,0,1-.61-1.6,2.17,2.17,0,0,1,.68-1.7,2.75,2.75,0,0,1,1.94-.64,2.44,2.44,0,0,1,1.93.79,3,3,0,0,1,.69,1.73.93.93,0,0,0,1.61.54,1,1,0,0,0,.24-.71,4.77,4.77,0,0,0-1-2.64,4,4,0,0,0-2.6-1.38V9.35a.85.85,0,0,0-1.69,0v1.18a4.27,4.27,0,0,0-2.57,1.2,3.88,3.88,0,0,0-1.08,2.84,3.8,3.8,0,0,0,1,2.71A7.35,7.35,0,0,0,19.49,19a6.74,6.74,0,0,1,2.37,1.24,2,2,0,0,1,.61,1.54,2.08,2.08,0,0,1-.76,1.68,3.08,3.08,0,0,1-2.05.67,3.1,3.1,0,0,1-2.26-.78,2.56,2.56,0,0,1-.76-1.67,1,1,0,0,0-.93-.83,1,1,0,0,0-.69.31,1,1,0,0,0-.24.72,4.28,4.28,0,0,0,1.15,2.6,4.63,4.63,0,0,0,2.95,1.32v.95a.84.84,0,0,0,1.68,0v-1a4.5,4.5,0,0,0,2.66-1.19,3.8,3.8,0,0,0,1.11-2.84,4,4,0,0,0-.43-1.92Z" transform="translate(-0.13)"></path><path class="cls-1" d="M47.39,71.72A17.86,17.86,0,1,1,65.24,53.86,17.87,17.87,0,0,1,47.39,71.72Zm0-32.82a15,15,0,1,0,15,15,15,15,0,0,0-15-15Z" transform="translate(-0.13)"></path><path class="cls-2" d="M52.68,56.06a4.81,4.81,0,0,0-1.56-1.69A13.3,13.3,0,0,0,48,53a8,8,0,0,1-2.81-1.43,2.47,2.47,0,0,1-.74-1.93,2.67,2.67,0,0,1,.82-2.07,3.31,3.31,0,0,1,2.36-.78,2.93,2.93,0,0,1,2.34,1,3.69,3.69,0,0,1,.84,2.1,1.16,1.16,0,0,0,1.12,1,1.13,1.13,0,0,0,.84-.37A1.11,1.11,0,0,0,53,49.6a5.74,5.74,0,0,0-1.22-3.22,4.81,4.81,0,0,0-3.15-1.67V43.28a1,1,0,1,0-2,0V44.7a5.26,5.26,0,0,0-3.13,1.47,5.15,5.15,0,0,0-.12,6.75,9.17,9.17,0,0,0,4,2.12,7.88,7.88,0,0,1,2.88,1.5,2.45,2.45,0,0,1,.74,1.87,2.51,2.51,0,0,1-.92,2,4.37,4.37,0,0,1-5.24-.13,3.16,3.16,0,0,1-.93-2,1.16,1.16,0,0,0-1.13-1,1.13,1.13,0,0,0-1.13,1.24A5.27,5.27,0,0,0,43,61.7a5.66,5.66,0,0,0,3.6,1.6v1.16a1,1,0,0,0,2,0V63.28a5.43,5.43,0,0,0,3.24-1.44,4.67,4.67,0,0,0,1.35-3.46,5,5,0,0,0-.52-2.32Z" transform="translate(-0.13)"></path><path class="cls-1" d="M18.82,48.75a.87.87,0,0,0,1.46.47.87.87,0,0,1,1.38,1,.88.88,0,0,0,.9,1.24.87.87,0,0,1,.53,1.63.88.88,0,0,0,0,1.53.87.87,0,0,1-.53,1.63.88.88,0,0,0-.9,1.24.87.87,0,0,1-1.38,1,.87.87,0,0,0-1.46.47.88.88,0,0,1-1.72,0,.86.86,0,0,0-1.45-.47.87.87,0,0,1-1.39-1,.87.87,0,0,0-.9-1.24.87.87,0,0,1-.53-1.63.87.87,0,0,0,0-1.53.87.87,0,0,1,.53-1.63.87.87,0,0,0,.9-1.24.87.87,0,0,1,1.39-1,.86.86,0,0,0,1.45-.47A.88.88,0,0,1,18.82,48.75Z" transform="translate(-0.13)"></path><path class="cls-1" d="M79,48.75a.86.86,0,0,0,1.45.47.87.87,0,0,1,1.39,1,.87.87,0,0,0,.9,1.24.87.87,0,0,1,.53,1.63.87.87,0,0,0,0,1.53.87.87,0,0,1-.53,1.63.87.87,0,0,0-.9,1.24.87.87,0,0,1-1.39,1A.86.86,0,0,0,79,59a.88.88,0,0,1-1.72,0,.86.86,0,0,0-1.45-.47.87.87,0,0,1-1.39-1,.87.87,0,0,0-.9-1.24A.87.87,0,0,1,73,54.63a.87.87,0,0,0,0-1.53.87.87,0,0,1,.53-1.63.87.87,0,0,0,.9-1.24.87.87,0,0,1,1.39-1,.86.86,0,0,0,1.45-.47A.88.88,0,0,1,79,48.75Z" transform="translate(-0.13)"></path><path class="cls-3" d="M68.4,88.14H61.7a1.45,1.45,0,0,1-1.44-1.45V80a1.45,1.45,0,0,1,1.44-1.45h6.7A1.45,1.45,0,0,1,69.85,80v6.69A1.45,1.45,0,0,1,68.4,88.14Zm-5.25-2.89H67V81.44H63.15Z" transform="translate(-0.13)"></path><path class="cls-2" d="M19.56,36.12A18.06,18.06,0,1,0,1.5,18.06,18.08,18.08,0,0,0,19.56,36.12Zm0-33.23A15.17,15.17,0,1,1,4.39,18.06,15.19,15.19,0,0,1,19.56,2.89Z" transform="translate(-0.13)"></path><path class="cls-2" d="M36.12,30.34a1.43,1.43,0,0,0,1.44,1.44h54.2V66.25a1.45,1.45,0,0,0,2.89,0V30.34a1.45,1.45,0,0,0-1.45-1.45H37.56a1.44,1.44,0,0,0-1.44,1.45Z" transform="translate(-0.13)"></path><path class="cls-2" d="M49,75.94H3V30.34a1.45,1.45,0,1,0-2.89,0V77.39a1.44,1.44,0,0,0,1.44,1.45H49a1.45,1.45,0,0,0,0-2.9Z" transform="translate(-0.13)"></path><path class="cls-3" d="M106.75,71h-48a5,5,0,0,0-5,5v24a5,5,0,0,0,5,5h48a5,5,0,0,0,5-5V76A5,5,0,0,0,106.75,71Zm2.11,29a2.12,2.12,0,0,1-2.11,2.12h-48A2.12,2.12,0,0,1,56.65,100V76a2.12,2.12,0,0,1,2.12-2.12h48A2.11,2.11,0,0,1,108.86,76Z" transform="translate(-0.13)"></path><path class="cls-1" d="M68.05,93H61.7a1.45,1.45,0,0,0,0,2.89h6.35a1.45,1.45,0,1,0,0-2.89Z" transform="translate(-0.13)"></path><path class="cls-1" d="M80,93H73.62a1.45,1.45,0,0,0,0,2.89H80A1.45,1.45,0,1,0,80,93Z" transform="translate(-0.13)"></path><path class="cls-1" d="M91.89,93H85.54a1.45,1.45,0,1,0,0,2.89h6.35a1.45,1.45,0,1,0,0-2.89Z" transform="translate(-0.13)"></path><path class="cls-1" d="M103.81,93H97.46a1.45,1.45,0,1,0,0,2.89h6.35a1.45,1.45,0,0,0,0-2.89Z" transform="translate(-0.13)"></path><path class="cls-2" d="M99.86,78.33a5.39,5.39,0,1,0,5.4,5.39A5.4,5.4,0,0,0,99.86,78.33Zm0,7.89a2.5,2.5,0,1,1,2.5-2.5A2.5,2.5,0,0,1,99.86,86.22Z" transform="translate(-0.13)"></path></svg> 