<?xml version="1.0" encoding="UTF-8"?> <svg xmlns="http://www.w3.org/2000/svg" id="Layer_1" data-name="Layer 1" viewBox="0 0 92.85 105"><defs><style>.cls-1{fill:#0078be;}.cls-2{fill:#bab9b7;}.cls-3{fill:#a7c6bd;}</style></defs><title>Samovyvozmainpage</title><path class="cls-1" d="M91.4,32H1.45a1.45,1.45,0,1,1,0-2.89h90a1.45,1.45,0,1,1,0,2.89Z"></path><path class="cls-2" d="M44.88,76H16.15a1.45,1.45,0,1,1,0-2.89H44.88a1.45,1.45,0,1,1,0,2.89Z"></path><path class="cls-3" d="M85.37,52.64a1.45,1.45,0,0,0-1.45,1.45v46.57a1.45,1.45,0,0,1-1.44,1.45H77V59.88a1.45,1.45,0,0,0-1.45-1.45H53.3a1.45,1.45,0,0,0-1.45,1.45v42.23H10.37a1.45,1.45,0,0,1-1.44-1.45V54.09a1.45,1.45,0,1,0-2.89,0v46.57A4.34,4.34,0,0,0,10.37,105H82.48a4.35,4.35,0,0,0,4.34-4.34V54.09A1.45,1.45,0,0,0,85.37,52.64ZM54.74,61.32H74.09v40.79H54.74Z"></path><path class="cls-3" d="M92.67,21.66,81.93,2.24A4.35,4.35,0,0,0,78.13,0H14.72a4.33,4.33,0,0,0-3.79,2.24L.18,21.66a1.46,1.46,0,0,0-.18.7V40.12A10.44,10.44,0,0,0,19.44,45.4a10.42,10.42,0,0,0,18,0,10.42,10.42,0,0,0,18,0,10.42,10.42,0,0,0,18,0,10.44,10.44,0,0,0,19.44-5.28V22.36a1.46,1.46,0,0,0-.18-.7Zm-79.21-18a1.44,1.44,0,0,1,1.26-.75H78.13a1.46,1.46,0,0,1,1.27.75L89,20.92H3.9Zm-3,44a7.56,7.56,0,0,1-7.55-7.55V23.81H18V40.12A7.56,7.56,0,0,1,10.44,47.67Zm18,0a7.56,7.56,0,0,1-7.55-7.55V23.81H36V40.12a7.56,7.56,0,0,1-7.55,7.55Zm18,0a7.56,7.56,0,0,1-7.55-7.55V23.81H54V40.12a7.56,7.56,0,0,1-7.55,7.55Zm18,0a7.56,7.56,0,0,1-7.55-7.55V23.81H72V40.12A7.56,7.56,0,0,1,64.42,47.67Zm18,0a7.56,7.56,0,0,1-7.55-7.55V23.81H90V40.12A7.56,7.56,0,0,1,82.41,47.67Z"></path><path class="cls-1" d="M44.88,82.34H16.15A1.45,1.45,0,0,1,14.7,80.9v-21a1.45,1.45,0,0,1,1.45-1.45H44.88a1.45,1.45,0,0,1,1.45,1.45v21a1.45,1.45,0,0,1-1.45,1.44ZM17.6,79.45H43.44V61.32H17.6Z"></path></svg> 